<mxfile host="app.diagrams.net" agent="Mozilla/5.0 (Windows NT 10.0; Win64; x64) AppleWebKit/537.36 (KHTML, like Gecko) Chrome/137.0.0.0 Safari/537.36" version="26.1.0">
  <diagram name="Page-1" id="4eHRl4CPB6I6Uv9056Hh">
    <mxGraphModel dx="350" dy="441" grid="0" gridSize="10" guides="1" tooltips="1" connect="1" arrows="1" fold="1" page="0" pageScale="1" pageWidth="850" pageHeight="1100" math="1" shadow="0">
      <root>
        <mxCell id="0" />
        <mxCell id="1" parent="0" />
        <mxCell id="BI4gxbUmeSCvFVr5s4Jp-15" value="PB1" style="html=1;shadow=0;dashed=0;align=center;verticalAlign=middle;shape=mxgraph.arrows2.arrow;dy=0;dx=10;notch=0;fontSize=25;" vertex="1" parent="1">
          <mxGeometry x="400" y="80" width="170" height="40" as="geometry" />
        </mxCell>
        <mxCell id="BI4gxbUmeSCvFVr5s4Jp-16" value="3.3V" style="html=1;shadow=0;dashed=0;align=center;verticalAlign=middle;shape=mxgraph.arrows2.arrow;dy=0;dx=10;notch=0;fontSize=25;" vertex="1" parent="1">
          <mxGeometry x="400" y="230" width="170" height="40" as="geometry" />
        </mxCell>
        <mxCell id="BI4gxbUmeSCvFVr5s4Jp-17" value="GND" style="html=1;shadow=0;dashed=0;align=center;verticalAlign=middle;shape=mxgraph.arrows2.arrow;dy=0;dx=10;notch=0;fontSize=25;" vertex="1" parent="1">
          <mxGeometry x="400" y="300" width="170" height="40" as="geometry" />
        </mxCell>
        <mxCell id="BI4gxbUmeSCvFVr5s4Jp-30" style="edgeStyle=orthogonalEdgeStyle;rounded=0;orthogonalLoop=1;jettySize=auto;html=1;exitX=1;exitY=0.5;exitDx=0;exitDy=0;exitPerimeter=0;endArrow=none;startFill=0;" edge="1" parent="1" source="BI4gxbUmeSCvFVr5s4Jp-18">
          <mxGeometry relative="1" as="geometry">
            <mxPoint x="660.0000000000002" y="160" as="targetPoint" />
          </mxGeometry>
        </mxCell>
        <mxCell id="BI4gxbUmeSCvFVr5s4Jp-18" value="PA4" style="html=1;shadow=0;dashed=0;align=center;verticalAlign=middle;shape=mxgraph.arrows2.arrow;dy=0;dx=10;notch=0;fontSize=25;" vertex="1" parent="1">
          <mxGeometry x="400" y="160" width="170" height="40" as="geometry" />
        </mxCell>
        <mxCell id="BI4gxbUmeSCvFVr5s4Jp-19" value="" style="pointerEvents=1;verticalLabelPosition=bottom;shadow=0;dashed=0;align=center;html=1;verticalAlign=top;shape=mxgraph.electrical.signal_sources.protective_earth;" vertex="1" parent="1">
          <mxGeometry x="650" y="360" width="40" height="40" as="geometry" />
        </mxCell>
        <mxCell id="BI4gxbUmeSCvFVr5s4Jp-20" style="edgeStyle=orthogonalEdgeStyle;rounded=0;orthogonalLoop=1;jettySize=auto;html=1;exitX=1;exitY=0.5;exitDx=0;exitDy=0;exitPerimeter=0;entryX=0.5;entryY=0;entryDx=0;entryDy=0;entryPerimeter=0;endArrow=none;startFill=0;" edge="1" parent="1" source="BI4gxbUmeSCvFVr5s4Jp-17" target="BI4gxbUmeSCvFVr5s4Jp-19">
          <mxGeometry relative="1" as="geometry" />
        </mxCell>
        <mxCell id="BI4gxbUmeSCvFVr5s4Jp-21" value="R = 100`\Omega`" style="pointerEvents=1;verticalLabelPosition=bottom;shadow=0;dashed=0;align=center;html=1;verticalAlign=top;shape=mxgraph.electrical.resistors.resistor_2;" vertex="1" parent="1">
          <mxGeometry x="640" y="90" width="100" height="20" as="geometry" />
        </mxCell>
        <mxCell id="BI4gxbUmeSCvFVr5s4Jp-22" style="edgeStyle=orthogonalEdgeStyle;rounded=0;orthogonalLoop=1;jettySize=auto;html=1;exitX=1;exitY=0.5;exitDx=0;exitDy=0;exitPerimeter=0;entryX=0.086;entryY=0.483;entryDx=0;entryDy=0;entryPerimeter=0;endArrow=none;startFill=0;" edge="1" parent="1" source="BI4gxbUmeSCvFVr5s4Jp-15" target="BI4gxbUmeSCvFVr5s4Jp-21">
          <mxGeometry relative="1" as="geometry" />
        </mxCell>
        <mxCell id="BI4gxbUmeSCvFVr5s4Jp-23" value="" style="pointerEvents=1;fillColor=strokeColor;verticalLabelPosition=bottom;shadow=0;dashed=0;align=center;html=1;verticalAlign=top;shape=mxgraph.electrical.diodes.diode;" vertex="1" parent="1">
          <mxGeometry x="760" y="70" width="100" height="60" as="geometry" />
        </mxCell>
        <mxCell id="BI4gxbUmeSCvFVr5s4Jp-24" style="edgeStyle=orthogonalEdgeStyle;rounded=0;orthogonalLoop=1;jettySize=auto;html=1;exitX=1;exitY=0.5;exitDx=0;exitDy=0;exitPerimeter=0;entryX=0.064;entryY=0.49;entryDx=0;entryDy=0;entryPerimeter=0;endArrow=none;startFill=0;" edge="1" parent="1" source="BI4gxbUmeSCvFVr5s4Jp-21" target="BI4gxbUmeSCvFVr5s4Jp-23">
          <mxGeometry relative="1" as="geometry" />
        </mxCell>
        <mxCell id="BI4gxbUmeSCvFVr5s4Jp-25" style="edgeStyle=orthogonalEdgeStyle;rounded=0;orthogonalLoop=1;jettySize=auto;html=1;exitX=1;exitY=0.5;exitDx=0;exitDy=0;exitPerimeter=0;entryX=0.553;entryY=0.213;entryDx=0;entryDy=0;entryPerimeter=0;endArrow=none;startFill=0;" edge="1" parent="1" source="BI4gxbUmeSCvFVr5s4Jp-23" target="BI4gxbUmeSCvFVr5s4Jp-19">
          <mxGeometry relative="1" as="geometry">
            <Array as="points">
              <mxPoint x="880" y="100" />
              <mxPoint x="880" y="320" />
              <mxPoint x="672" y="320" />
            </Array>
          </mxGeometry>
        </mxCell>
        <mxCell id="BI4gxbUmeSCvFVr5s4Jp-26" value="" style="html=1;shape=mxgraph.electrical.electro-mechanical.pushbutton;aspect=fixed;elSwitchState=off;" vertex="1" parent="1">
          <mxGeometry x="720" y="160" width="75" height="20" as="geometry" />
        </mxCell>
        <mxCell id="BI4gxbUmeSCvFVr5s4Jp-29" style="edgeStyle=orthogonalEdgeStyle;rounded=0;orthogonalLoop=1;jettySize=auto;html=1;exitX=1;exitY=0.5;exitDx=0;exitDy=0;exitPerimeter=0;entryX=0;entryY=0.8;entryDx=0;entryDy=0;endArrow=none;startFill=0;" edge="1" parent="1" source="BI4gxbUmeSCvFVr5s4Jp-27" target="BI4gxbUmeSCvFVr5s4Jp-26">
          <mxGeometry relative="1" as="geometry" />
        </mxCell>
        <mxCell id="BI4gxbUmeSCvFVr5s4Jp-27" value="R = 10K`\Omega`" style="pointerEvents=1;verticalLabelPosition=bottom;shadow=0;dashed=0;align=center;html=1;verticalAlign=top;shape=mxgraph.electrical.resistors.resistor_2;rotation=-90;" vertex="1" parent="1">
          <mxGeometry x="600" y="220" width="100" height="20" as="geometry" />
        </mxCell>
        <mxCell id="BI4gxbUmeSCvFVr5s4Jp-28" style="edgeStyle=orthogonalEdgeStyle;rounded=0;orthogonalLoop=1;jettySize=auto;html=1;exitX=1;exitY=0.5;exitDx=0;exitDy=0;exitPerimeter=0;entryX=0;entryY=0.5;entryDx=0;entryDy=0;entryPerimeter=0;endArrow=none;startFill=0;" edge="1" parent="1" source="BI4gxbUmeSCvFVr5s4Jp-16" target="BI4gxbUmeSCvFVr5s4Jp-27">
          <mxGeometry relative="1" as="geometry">
            <Array as="points">
              <mxPoint x="605" y="250" />
              <mxPoint x="605" y="280" />
            </Array>
          </mxGeometry>
        </mxCell>
        <mxCell id="BI4gxbUmeSCvFVr5s4Jp-31" style="edgeStyle=orthogonalEdgeStyle;rounded=0;orthogonalLoop=1;jettySize=auto;html=1;exitX=1;exitY=0.8;exitDx=0;exitDy=0;entryX=0.517;entryY=0.346;entryDx=0;entryDy=0;entryPerimeter=0;endArrow=none;startFill=0;" edge="1" parent="1" source="BI4gxbUmeSCvFVr5s4Jp-26" target="BI4gxbUmeSCvFVr5s4Jp-19">
          <mxGeometry relative="1" as="geometry">
            <Array as="points">
              <mxPoint x="830" y="176" />
              <mxPoint x="830" y="300" />
              <mxPoint x="671" y="300" />
            </Array>
          </mxGeometry>
        </mxCell>
      </root>
    </mxGraphModel>
  </diagram>
</mxfile>
